<?xml version="1.0" standalone="no"?>
<!DOCTYPE svg PUBLIC "-//W3C//DTD SVG 20010904//EN"
 "http://www.w3.org/TR/2001/REC-SVG-20010904/DTD/svg10.dtd">
<svg version="1.0" xmlns="http://www.w3.org/2000/svg"
 width="835.000000pt" height="835.000000pt" viewBox="0 0 835.000000 835.000000"
 preserveAspectRatio="xMidYMid meet">
<metadata>
Created by potrace 1.11, written by Peter Selinger 2001-2013
</metadata>
<g transform="translate(0.000000,835.000000) scale(0.100000,-0.100000)"
fill="#000000" stroke="none">
<path d="M4441 7747 c-1 -5 -21 -104 -46 -220 -38 -176 -61 -273 -110 -467
-50 -196 -192 -614 -260 -765 -8 -16 -37 -84 -65 -150 -128 -298 -350 -678
-564 -965 -79 -107 -230 -295 -261 -325 -11 -11 -37 -40 -58 -64 l-37 -45 73
-71 c192 -191 380 -411 482 -565 136 -206 249 -452 289 -630 22 -96 27 -139
28 -242 2 -226 -42 -363 -146 -454 -115 -100 -361 -138 -497 -76 -57 26 -118
91 -151 162 -80 171 -18 310 194 433 26 15 48 31 48 35 0 8 -57 70 -184 202
-311 323 -712 623 -1111 830 -66 34 -126 67 -134 74 -8 6 -17 11 -20 10 -6 -1
-50 18 -172 74 -25 12 -70 31 -100 42 -30 12 -65 27 -79 33 -14 5 -29 11 -35
13 -5 1 -73 25 -150 52 -205 72 -550 170 -561 159 -4 -4 8 -15 171 -158 549
-481 883 -1018 994 -1599 20 -101 31 -211 36 -343 l3 -108 -27 38 c-15 21 -65
92 -111 158 -270 389 -513 647 -870 929 -92 72 -341 207 -480 260 -74 28 -250
72 -325 80 -27 4 -61 8 -75 10 -73 12 -124 17 -120 13 3 -3 50 -31 105 -62 89
-51 282 -178 295 -194 3 -4 30 -26 60 -51 160 -131 335 -332 461 -530 88 -137
78 -120 159 -280 93 -184 181 -408 245 -625 14 -49 32 -110 40 -135 21 -71 55
-221 84 -368 13 -66 15 -95 7 -97 -6 -2 -27 -8 -47 -14 -87 -27 -125 -160 -88
-315 35 -150 104 -207 383 -317 287 -113 824 -285 1015 -324 9 -2 39 -9 66
-15 28 -6 59 -14 70 -16 11 -2 31 -6 45 -9 14 -4 36 -8 50 -11 14 -2 45 -9 70
-14 25 -5 72 -14 105 -20 33 -5 69 -12 80 -14 11 -2 45 -7 75 -11 30 -4 64 -9
75 -11 23 -5 85 -13 135 -19 19 -2 49 -6 65 -8 17 -3 65 -8 107 -12 43 -3 90
-8 105 -10 216 -25 1007 -26 1142 0 9 1 54 6 101 10 47 3 96 8 110 10 25 3 95
12 156 19 38 5 182 27 209 32 11 2 36 7 55 10 42 7 269 53 325 65 22 5 54 12
70 15 17 3 63 15 103 26 40 11 84 22 98 24 55 10 349 99 529 159 373 126 374
126 434 215 63 92 74 123 69 193 -6 77 -40 145 -102 210 -52 54 -50 31 -15
237 16 94 56 291 85 419 26 117 117 420 145 486 4 11 26 65 47 120 74 190 187
408 293 565 42 61 98 139 109 150 3 3 28 32 55 65 76 91 222 232 286 275 12 8
27 20 33 25 6 6 61 43 121 84 80 53 102 71 80 68 -16 -3 -52 -9 -80 -12 -97
-12 -121 -17 -179 -31 -156 -40 -320 -117 -476 -225 -123 -84 -158 -115 -326
-284 -213 -214 -419 -487 -608 -802 -37 -62 -69 -113 -71 -113 -12 0 9 291 31
425 25 157 56 282 109 434 107 306 259 574 505 885 47 60 220 246 320 344 63
62 108 110 100 108 -8 -3 -78 -24 -155 -46 -667 -197 -1234 -531 -1712 -1008
-121 -121 -181 -185 -244 -263 -20 -24 -46 -55 -58 -68 -11 -13 -21 -27 -21
-30 0 -3 -14 -21 -30 -40 -17 -18 -30 -37 -30 -40 0 -9 38 -41 49 -41 5 0 39
-29 75 -64 103 -99 135 -197 101 -312 -34 -116 -94 -196 -173 -227 -45 -18
-138 -23 -207 -12 -121 21 -223 95 -269 195 -28 62 -52 168 -56 250 -1 30 -3
70 -4 87 -6 101 33 322 81 458 54 153 139 341 196 430 80 127 213 318 251 362
6 7 16 18 21 25 40 51 155 189 182 217 18 20 33 38 33 41 0 3 -10 16 -23 30
-24 27 -155 201 -223 297 -56 80 -222 352 -273 445 -206 385 -378 817 -504
1268 -61 219 -141 573 -163 723 -19 126 -41 248 -43 234z"/>
</g>
</svg>
